<svg xmlns="http://www.w3.org/2000/svg" viewBox="0 0 48 48">
  <defs>
    <linearGradient id="trailGradient" x1="0%" y1="0%" x2="100%" y2="100%">
      <stop offset="0%" style="stop-color:#2E7D32;stop-opacity:1" />
      <stop offset="50%" style="stop-color:#4CAF50;stop-opacity:1" />
      <stop offset="100%" style="stop-color:#66BB6A;stop-opacity:1" />
    </linearGradient>
    <linearGradient id="mountainGradient" x1="0%" y1="0%" x2="100%" y2="100%">
      <stop offset="0%" style="stop-color:#5D4037;stop-opacity:1" />
      <stop offset="100%" style="stop-color:#8D6E63;stop-opacity:1" />
    </linearGradient>
    <linearGradient id="skyGradient" x1="0%" y1="0%" x2="0%" y2="100%">
      <stop offset="0%" style="stop-color:#87CEEB;stop-opacity:1" />
      <stop offset="100%" style="stop-color:#E3F2FD;stop-opacity:1" />
    </linearGradient>
  </defs>
  
  <!-- Sky background -->
  <rect x="0" y="0" width="48" height="30" fill="url(#skyGradient)" opacity="0.3"/>
  
  <!-- Mountains in background -->
  <path d="M0 30 L12 16 L24 24 L36 12 L48 20 L48 48 L0 48 Z" fill="url(#mountainGradient)" opacity="0.7"/>
  
  <!-- The narrow trail path -->
  <path d="M4 40 Q12 36 16 32 Q24 28 28 24 Q36 20 44 16" 
        stroke="url(#trailGradient)" 
        stroke-width="3" 
        stroke-linecap="round" 
        fill="none"/>
  
  <!-- Trail markers/stones -->
  <circle cx="8" cy="38" r="2" fill="#795548"/>
  <circle cx="20" cy="30" r="2" fill="#795548"/>
  <circle cx="32" cy="22" r="2" fill="#795548"/>
  <circle cx="40" cy="18" r="2" fill="#795548"/>
  
  <!-- Hiking figure (larger) -->
  <g transform="translate(36,16)">
    <!-- Head -->
    <circle cx="0" cy="-2" r="2" fill="#FF9800"/>
    <!-- Hat -->
    <ellipse cx="0" cy="-3" rx="2.5" ry="0.8" fill="#8D6E63"/>
    <!-- Body -->
    <line x1="0" y1="0" x2="0" y2="6" stroke="#2196F3" stroke-width="3"/>
    <!-- Arms -->
    <line x1="-2" y1="2" x2="2" y2="2" stroke="#2196F3" stroke-width="2"/>
    <!-- Legs -->
    <line x1="0" y1="6" x2="-1" y2="10" stroke="#2196F3" stroke-width="2"/>
    <line x1="0" y1="6" x2="1" y2="10" stroke="#2196F3" stroke-width="2"/>
    <!-- Hiking pole -->
    <line x1="2" y1="2" x2="3" y2="8" stroke="#8D6E63" stroke-width="2"/>
    <!-- Backpack -->
    <ellipse cx="-1" cy="1" rx="1.5" ry="2" fill="#FF5722"/>
  </g>
  
  <!-- Trees (more detailed) -->
  <g opacity="0.7">
    <polygon points="6,28 8,20 10,28" fill="#2E7D32"/>
    <rect x="7.4" y="28" width="1.2" height="4" fill="#5D4037"/>
    <circle cx="8" cy="22" r="1.5" fill="#4CAF50"/>
    
    <polygon points="40,24 42,16 44,24" fill="#2E7D32"/>
    <rect x="41.4" y="24" width="1.2" height="4" fill="#5D4037"/>
    <circle cx="42" cy="18" r="1.5" fill="#4CAF50"/>
    
    <polygon points="14,32 16,26 18,32" fill="#388E3C"/>
    <rect x="15.4" y="32" width="1.2" height="3" fill="#5D4037"/>
  </g>
  
  <!-- Sun -->
  <circle cx="8" cy="8" r="3" fill="#FFC107" opacity="0.8"/>
  <g stroke="#FFC107" stroke-width="1" opacity="0.6">
    <line x1="8" y1="2" x2="8" y2="4"/>
    <line x1="8" y1="12" x2="8" y2="14"/>
    <line x1="2" y1="8" x2="4" y2="8"/>
    <line x1="12" y1="8" x2="14" y2="8"/>
    <line x1="4.76" y1="4.76" x2="6.17" y2="6.17"/>
    <line x1="9.83" y1="9.83" x2="11.24" y2="11.24"/>
    <line x1="11.24" y1="4.76" x2="9.83" y2="6.17"/>
    <line x1="6.17" y1="9.83" x2="4.76" y2="11.24"/>
  </g>
</svg>