<svg xmlns="http://www.w3.org/2000/svg" viewBox="0 0 64 64" width="64" height="64">
  <!-- Background circle -->
  <circle cx="32" cy="32" r="30" fill="#2d5016"/>

  <!-- Mountain silhouette -->
  <path d="M10 45 L20 30 L28 38 L36 25 L44 35 L54 28 L54 50 L10 50 Z" fill="#4d7c3d"/>

  <!-- Hiker figure -->
  <g transform="translate(32, 28)">
    <!-- Backpack -->
    <rect x="-3" y="0" width="6" height="8" fill="#cc4444" rx="1"/>

    <!-- Body -->
    <rect x="-4" y="2" width="8" height="10" fill="#2c5f2d" rx="2"/>

    <!-- Head -->
    <circle cx="0" cy="-3" r="3.5" fill="#f5d0a9"/>

    <!-- Hat -->
    <ellipse cx="0" cy="-5" rx="4" ry="1.5" fill="#8b6f47"/>
    <rect x="-2.5" y="-6.5" width="5" height="1.5" fill="#8b6f47" rx="0.5"/>

    <!-- Hiking stick -->
    <line x1="6" y1="2" x2="9" y2="12" stroke="#654321" stroke-width="1.5" stroke-linecap="round"/>

    <!-- Legs -->
    <line x1="-1.5" y1="12" x2="-3" y2="18" stroke="#2c5f2d" stroke-width="2" stroke-linecap="round"/>
    <line x1="1.5" y1="12" x2="3" y2="18" stroke="#2c5f2d" stroke-width="2" stroke-linecap="round"/>

    <!-- Arms -->
    <line x1="-4" y1="4" x2="-6" y2="8" stroke="#2c5f2d" stroke-width="1.5" stroke-linecap="round"/>
    <line x1="4" y1="4" x2="6" y2="6" stroke="#2c5f2d" stroke-width="1.5" stroke-linecap="round"/>
  </g>
</svg>
