<svg xmlns="http://www.w3.org/2000/svg" viewBox="0 0 24 24">
  <defs>
    <linearGradient id="trailGradient" x1="0%" y1="0%" x2="100%" y2="100%">
      <stop offset="0%" style="stop-color:#2E7D32;stop-opacity:1" />
      <stop offset="50%" style="stop-color:#4CAF50;stop-opacity:1" />
      <stop offset="100%" style="stop-color:#66BB6A;stop-opacity:1" />
    </linearGradient>
    <linearGradient id="mountainGradient" x1="0%" y1="0%" x2="100%" y2="100%">
      <stop offset="0%" style="stop-color:#5D4037;stop-opacity:1" />
      <stop offset="100%" style="stop-color:#8D6E63;stop-opacity:1" />
    </linearGradient>
  </defs>
  
  <!-- Mountains in background -->
  <path d="M0 15 L6 8 L12 12 L18 6 L24 10 L24 24 L0 24 Z" fill="url(#mountainGradient)" opacity="0.7"/>
  
  <!-- The narrow trail path -->
  <path d="M2 20 Q6 18 8 16 Q12 14 14 12 Q18 10 22 8" 
        stroke="url(#trailGradient)" 
        stroke-width="2" 
        stroke-linecap="round" 
        fill="none"/>
  
  <!-- Trail markers/stones -->
  <circle cx="4" cy="19" r="1" fill="#795548"/>
  <circle cx="10" cy="15" r="1" fill="#795548"/>
  <circle cx="16" cy="11" r="1" fill="#795548"/>
  <circle cx="20" cy="9" r="1" fill="#795548"/>
  
  <!-- Hiking figure -->
  <g transform="translate(18,8)">
    <!-- Head -->
    <circle cx="0" cy="-1" r="1" fill="#FF9800"/>
    <!-- Body -->
    <line x1="0" y1="0" x2="0" y2="3" stroke="#2196F3" stroke-width="1.5"/>
    <!-- Arms -->
    <line x1="-1" y1="1" x2="1" y2="1" stroke="#2196F3" stroke-width="1"/>
    <!-- Legs -->
    <line x1="0" y1="3" x2="-0.5" y2="5" stroke="#2196F3" stroke-width="1"/>
    <line x1="0" y1="3" x2="0.5" y2="5" stroke="#2196F3" stroke-width="1"/>
    <!-- Hiking pole -->
    <line x1="1" y1="1" x2="1.5" y2="4" stroke="#8D6E63" stroke-width="1"/>
  </g>
  
  <!-- Trees -->
  <g opacity="0.6">
    <polygon points="3,14 4,10 5,14" fill="#2E7D32"/>
    <rect x="3.7" y="14" width="0.6" height="2" fill="#5D4037"/>
    
    <polygon points="20,12 21,8 22,12" fill="#2E7D32"/>
    <rect x="20.7" y="12" width="0.6" height="2" fill="#5D4037"/>
  </g>
</svg>